<svg width="900" height="540" viewBox="0 0 900 540" fill="none" xmlns="http://www.w3.org/2000/svg">
  <defs>
    <linearGradient id="bg" x1="450" y1="0" x2="450" y2="540" gradientUnits="userSpaceOnUse">
      <stop stop-color="#CAD2D8"/>
      <stop offset="1" stop-color="#6A737C"/>
    </linearGradient>
    <linearGradient id="steel" x1="0" y1="0" x2="1" y2="1">
      <stop stop-color="#B0BAC4"/>
      <stop offset="0.5" stop-color="#68737D"/>
      <stop offset="1" stop-color="#293038"/>
    </linearGradient>
    <linearGradient id="outerSheet" x1="0" y1="0" x2="0" y2="1">
      <stop stop-color="#F0F4F7"/>
      <stop offset="1" stop-color="#8F99A2"/>
    </linearGradient>
    <linearGradient id="innerSheet" x1="0" y1="0" x2="0" y2="1">
      <stop stop-color="#DCE2E7"/>
      <stop offset="1" stop-color="#7B858F"/>
    </linearGradient>
    <linearGradient id="core" x1="0" y1="0" x2="1" y2="1">
      <stop stop-color="#E6D8AA"/>
      <stop offset="1" stop-color="#B29659"/>
    </linearGradient>
  </defs>

  <rect width="900" height="540" fill="url(#bg)"/>
  <rect y="400" width="900" height="140" fill="#555D65"/>

  <rect x="118" y="64" width="56" height="372" fill="url(#steel)"/>
  <rect x="170" y="98" width="196" height="40" rx="10" fill="url(#steel)"/>
  <rect x="170" y="252" width="196" height="40" rx="10" fill="url(#steel)"/>

  <rect x="354" y="92" width="34" height="308" rx="9" fill="url(#outerSheet)"/>
  <rect x="388" y="92" width="116" height="308" rx="9" fill="url(#core)"/>
  <rect x="504" y="92" width="26" height="308" rx="8" fill="url(#innerSheet)"/>

  <rect x="354" y="92" width="8" height="308" rx="4" fill="#FCFEFF"/>
  <rect x="378" y="92" width="3" height="308" rx="1.5" fill="#89949D" fill-opacity="0.55"/>
  <rect x="454" y="92" width="3" height="308" rx="1.5" fill="#8B7449" fill-opacity="0.5"/>
  <rect x="504" y="92" width="6" height="308" rx="3" fill="#A9B3BC"/>

  <rect x="530" y="138" width="182" height="24" rx="12" fill="#AEB7C0"/>
  <rect x="530" y="228" width="182" height="24" rx="12" fill="#AEB7C0"/>
  <rect x="530" y="318" width="182" height="24" rx="12" fill="#AEB7C0"/>

  <rect x="534" y="144" width="174" height="12" rx="6" fill="#49515A"/>
  <rect x="534" y="234" width="174" height="12" rx="6" fill="#49515A"/>
  <rect x="534" y="324" width="174" height="12" rx="6" fill="#49515A"/>

  <path d="M346 154H188" stroke="#2A3138" stroke-width="8" stroke-linecap="round"/>
  <path d="M346 308H188" stroke="#2A3138" stroke-width="8" stroke-linecap="round"/>
  <path d="M540 150H700" stroke="#E6EBEF" stroke-width="7" stroke-linecap="round"/>
  <path d="M540 240H700" stroke="#E6EBEF" stroke-width="7" stroke-linecap="round"/>
  <path d="M540 330H700" stroke="#E6EBEF" stroke-width="7" stroke-linecap="round"/>

  <circle cx="342" cy="154" r="7" fill="#D07D45"/>
  <circle cx="342" cy="308" r="7" fill="#D07D45"/>
  <circle cx="540" cy="150" r="7" fill="#D07D45"/>
  <circle cx="540" cy="240" r="7" fill="#D07D45"/>
  <circle cx="540" cy="330" r="7" fill="#D07D45"/>

  <rect x="112" y="436" width="68" height="16" rx="4" fill="#ABB3BA"/>
  <circle cx="126" cy="444" r="3" fill="#495159"/>
  <circle cx="166" cy="444" r="3" fill="#495159"/>
</svg>
