<svg width="900" height="540" viewBox="0 0 900 540" fill="none" xmlns="http://www.w3.org/2000/svg">
  <defs>
    <linearGradient id="bg" x1="450" y1="0" x2="450" y2="540" gradientUnits="userSpaceOnUse">
      <stop stop-color="#ECE9E2" />
      <stop offset="1" stop-color="#D8D5CE" />
    </linearGradient>
    <linearGradient id="steelFace" x1="0" y1="0" x2="1" y2="1">
      <stop stop-color="#C9D1D8" />
      <stop offset="0.45" stop-color="#93A0AA" />
      <stop offset="1" stop-color="#5E6972" />
    </linearGradient>
    <linearGradient id="steelSide" x1="0" y1="0" x2="0" y2="1">
      <stop stop-color="#808B94" />
      <stop offset="1" stop-color="#49545D" />
    </linearGradient>
    <linearGradient id="outerSheet" x1="0" y1="0" x2="1" y2="1">
      <stop stop-color="#F7F9FA" />
      <stop offset="1" stop-color="#D6DDE2" />
    </linearGradient>
    <linearGradient id="innerSheet" x1="0" y1="0" x2="1" y2="1">
      <stop stop-color="#E9EEF1" />
      <stop offset="1" stop-color="#C5CED5" />
    </linearGradient>
    <linearGradient id="core" x1="0" y1="0" x2="1" y2="1">
      <stop stop-color="#E8DDB0" />
      <stop offset="1" stop-color="#C4A86C" />
    </linearGradient>
  </defs>

  <rect width="900" height="540" fill="url(#bg)" />
  <rect y="400" width="900" height="140" fill="#D0CCC5" />
  <rect y="430" width="900" height="110" fill="#A29F99" />

  <polygon points="150,390 416,286 440,304 174,408" fill="url(#steelFace)" />
  <polygon points="416,286 440,304 440,330 416,312" fill="url(#steelSide)" />
  <polygon points="420,304 644,216 670,232 446,320" fill="url(#outerSheet)" />
  <polygon points="446,320 670,232 670,256 446,344" fill="#B7C1C9" />
  <polygon points="430,310 642,226 658,236 446,320" fill="url(#core)" opacity="0.78" />
  <polygon points="642,226 694,244 484,330 430,310" fill="url(#innerSheet)" />

  <rect x="210" y="350" width="220" height="24" rx="4" transform="rotate(-22 210 350)" fill="#C0C8CF" />
  <rect x="214" y="356" width="212" height="8" rx="4" transform="rotate(-22 214 356)" fill="#44515A" />
  <rect x="360" y="294" width="220" height="24" rx="4" transform="rotate(-22 360 294)" fill="#C0C8CF" />
  <rect x="364" y="300" width="212" height="8" rx="4" transform="rotate(-22 364 300)" fill="#44515A" />
  <rect x="510" y="236" width="190" height="18" rx="4" transform="rotate(-22 510 236)" fill="#D9E0E5" />

  <path d="M246 354L272 364" stroke="#B86A37" stroke-width="7" stroke-linecap="round" />
  <path d="M394 296L420 306" stroke="#B86A37" stroke-width="7" stroke-linecap="round" />
  <path d="M542 240L568 250" stroke="#B86A37" stroke-width="7" stroke-linecap="round" />

  <circle cx="246" cy="354" r="4.5" fill="#B86A37" />
  <circle cx="394" cy="296" r="4.5" fill="#B86A37" />
  <circle cx="542" cy="240" r="4.5" fill="#B86A37" />

  <rect x="152" y="408" width="60" height="18" rx="3" fill="#BCC4CA" />
  <circle cx="166" cy="417" r="3.2" fill="#525A61" />
  <circle cx="196" cy="417" r="3.2" fill="#525A61" />

  <polygon points="640,214 706,236 680,248 614,226" fill="#F7F9FA" />
  <polygon points="680,248 706,236 734,246 708,258" fill="#AEB7BE" />
  <polygon points="614,226 680,248 708,258 642,236" fill="#D2D9DE" />
</svg>
