<svg width="900" height="540" viewBox="0 0 900 540" fill="none" xmlns="http://www.w3.org/2000/svg">
  <defs>
    <linearGradient id="bg" x1="450" y1="0" x2="450" y2="540" gradientUnits="userSpaceOnUse">
      <stop stop-color="#ECE9E2" />
      <stop offset="1" stop-color="#D8D5CE" />
    </linearGradient>
    <linearGradient id="steelFace" x1="0" y1="0" x2="1" y2="1">
      <stop stop-color="#CCD4DA" />
      <stop offset="0.42" stop-color="#95A0A9" />
      <stop offset="1" stop-color="#5E6872" />
    </linearGradient>
    <linearGradient id="steelSide" x1="0" y1="0" x2="0" y2="1">
      <stop stop-color="#7F8A93" />
      <stop offset="1" stop-color="#49545D" />
    </linearGradient>
    <pattern id="panelRibs" width="26" height="26" patternUnits="userSpaceOnUse">
      <rect width="26" height="26" fill="#E8EDF0" />
      <rect width="4" height="26" fill="#FBFCFD" />
      <rect x="13" width="2" height="26" fill="#A1ABB4" fill-opacity="0.52" />
      <rect x="22" width="2" height="26" fill="#89949D" fill-opacity="0.35" />
    </pattern>
  </defs>

  <rect width="900" height="540" fill="url(#bg)" />
  <rect y="394" width="900" height="146" fill="#D0CCC5" />
  <rect y="424" width="900" height="116" fill="#A29F99" />

  <polygon points="126,420 754,420 754,438 126,438" fill="#B5BCBF" />
  <polygon points="126,438 754,438 754,452 126,452" fill="#8E969E" />

  <g opacity="0.96">
    <polygon points="120,176 138,176 138,420 120,420" fill="url(#steelFace)" />
    <polygon points="138,176 152,172 152,416 138,420" fill="url(#steelSide)" />
    <polygon points="268,138 286,138 286,420 268,420" fill="url(#steelFace)" />
    <polygon points="286,138 300,134 300,416 286,420" fill="url(#steelSide)" />
    <polygon points="430,102 448,102 448,420 430,420" fill="url(#steelFace)" />
    <polygon points="448,102 462,98 462,416 448,420" fill="url(#steelSide)" />
    <polygon points="590,138 608,138 608,420 590,420" fill="url(#steelFace)" />
    <polygon points="608,138 622,134 622,416 608,420" fill="url(#steelSide)" />
    <polygon points="736,176 754,176 754,420 736,420" fill="url(#steelFace)" />
    <polygon points="754,176 768,172 768,416 754,420" fill="url(#steelSide)" />

    <polygon points="120,176 278,138 290,154 132,192" fill="url(#steelFace)" />
    <polygon points="278,138 290,134 302,150 290,154" fill="url(#steelSide)" />
    <polygon points="278,138 438,102 450,118 290,154" fill="url(#steelFace)" />
    <polygon points="438,102 450,98 462,114 450,118" fill="url(#steelSide)" />
    <polygon points="438,102 602,138 614,154 450,118" fill="url(#steelFace)" />
    <polygon points="602,138 614,134 626,150 614,154" fill="url(#steelSide)" />
    <polygon points="602,138 746,176 758,192 614,154" fill="url(#steelFace)" />
    <polygon points="746,176 758,172 770,188 758,192" fill="url(#steelSide)" />
  </g>

  <g opacity="0.28">
    <rect x="138" y="228" width="606" height="7" fill="#66717A" />
    <rect x="138" y="284" width="606" height="7" fill="#66717A" />
    <rect x="138" y="340" width="606" height="7" fill="#66717A" />
  </g>

  <polygon points="450,118 614,154 614,420 450,420" fill="url(#panelRibs)" />
  <polygon points="614,154 758,192 758,420 614,420" fill="url(#panelRibs)" />
  <polygon points="450,118 614,154 758,192 596,154" fill="#F8FAFB" opacity="0.56" />

  <path d="M144 390L270 138" stroke="#7D8790" stroke-width="6" stroke-linecap="round" />
  <path d="M592 138L738 390" stroke="#7D8790" stroke-width="6" stroke-linecap="round" />

  <rect x="114" y="420" width="42" height="14" rx="3" fill="#BCC4CA" />
  <rect x="262" y="420" width="42" height="14" rx="3" fill="#BCC4CA" />
  <rect x="424" y="420" width="42" height="14" rx="3" fill="#BCC4CA" />
  <rect x="584" y="420" width="42" height="14" rx="3" fill="#BCC4CA" />
  <rect x="730" y="420" width="42" height="14" rx="3" fill="#BCC4CA" />
</svg>
