<svg width="900" height="540" viewBox="0 0 900 540" fill="none" xmlns="http://www.w3.org/2000/svg">
  <defs>
    <linearGradient id="bg" x1="450" y1="0" x2="450" y2="540" gradientUnits="userSpaceOnUse">
      <stop stop-color="#CDD4DA"/>
      <stop offset="1" stop-color="#66707A"/>
    </linearGradient>
    <linearGradient id="steel" x1="0" y1="0" x2="1" y2="1">
      <stop stop-color="#AEB8C2"/>
      <stop offset="0.5" stop-color="#68737C"/>
      <stop offset="1" stop-color="#2A3138"/>
    </linearGradient>
    <pattern id="panelRibs" width="24" height="24" patternUnits="userSpaceOnUse">
      <rect width="24" height="24" fill="#D9E0E5"/>
      <rect x="0" width="4" height="24" fill="#F4F7F9"/>
      <rect x="12" width="2" height="24" fill="#8D98A1" fill-opacity="0.45"/>
    </pattern>
  </defs>

  <rect width="900" height="540" fill="url(#bg)"/>
  <rect y="398" width="900" height="142" fill="#596168"/>

  <g opacity="0.95">
    <rect x="126" y="178" width="18" height="244" fill="url(#steel)"/>
    <rect x="270" y="138" width="18" height="284" fill="url(#steel)"/>
    <rect x="430" y="102" width="18" height="320" fill="url(#steel)"/>
    <rect x="592" y="138" width="18" height="284" fill="url(#steel)"/>
    <rect x="738" y="178" width="18" height="244" fill="url(#steel)"/>

    <polygon points="126,178 278,138 288,154 136,194" fill="url(#steel)"/>
    <polygon points="278,138 438,102 448,118 288,154" fill="url(#steel)"/>
    <polygon points="438,102 600,138 610,154 448,118" fill="url(#steel)"/>
    <polygon points="600,138 746,178 756,194 610,154" fill="url(#steel)"/>
  </g>

  <g opacity="0.36">
    <rect x="138" y="228" width="604" height="8" fill="#4B545C"/>
    <rect x="138" y="284" width="604" height="8" fill="#4B545C"/>
    <rect x="138" y="340" width="604" height="8" fill="#4B545C"/>
  </g>

  <polygon points="448,118 610,154 610,414 448,414" fill="url(#panelRibs)"/>
  <polygon points="610,154 746,194 746,414 610,414" fill="url(#panelRibs)"/>
  <polygon points="448,118 610,154 746,194 586,156" fill="#F1F4F7" opacity="0.4"/>

  <path d="M144 390L270 138" stroke="#D07D45" stroke-width="7" stroke-linecap="round"/>
  <path d="M592 138L738 390" stroke="#D07D45" stroke-width="7" stroke-linecap="round"/>

  <rect x="118" y="422" width="34" height="12" rx="3" fill="#AAB3BB"/>
  <rect x="262" y="422" width="34" height="12" rx="3" fill="#AAB3BB"/>
  <rect x="422" y="422" width="34" height="12" rx="3" fill="#AAB3BB"/>
  <rect x="584" y="422" width="34" height="12" rx="3" fill="#AAB3BB"/>
  <rect x="730" y="422" width="34" height="12" rx="3" fill="#AAB3BB"/>
</svg>
