<svg width="1200" height="620" viewBox="0 0 1200 620" fill="none" xmlns="http://www.w3.org/2000/svg">
  <defs>
    <linearGradient id="bg" x1="600" y1="0" x2="600" y2="620" gradientUnits="userSpaceOnUse">
      <stop stop-color="#ECE9E2" />
      <stop offset="1" stop-color="#D8D5CE" />
    </linearGradient>
    <linearGradient id="ground" x1="600" y1="432" x2="600" y2="620" gradientUnits="userSpaceOnUse">
      <stop stop-color="#C8C4BD" />
      <stop offset="1" stop-color="#9F9A93" />
    </linearGradient>
    <linearGradient id="steelFace" x1="0" y1="0" x2="1" y2="1">
      <stop stop-color="#CBD4DA" />
      <stop offset="0.42" stop-color="#96A1AA" />
      <stop offset="1" stop-color="#5E6872" />
    </linearGradient>
    <linearGradient id="steelSide" x1="0" y1="0" x2="0" y2="1">
      <stop stop-color="#7E8992" />
      <stop offset="1" stop-color="#49545D" />
    </linearGradient>
    <pattern id="panelRibs" width="28" height="28" patternUnits="userSpaceOnUse">
      <rect width="28" height="28" fill="#E9EEF1" />
      <rect width="4" height="28" fill="#FBFCFD" />
      <rect x="14" width="2" height="28" fill="#A1ABB4" fill-opacity="0.52" />
      <rect x="24" width="2" height="28" fill="#8D98A1" fill-opacity="0.34" />
    </pattern>
    <pattern id="roofRibs" width="42" height="26" patternUnits="userSpaceOnUse" patternTransform="rotate(-18)">
      <rect width="42" height="26" fill="#DCE3E8" />
      <rect width="5" height="26" fill="#F8FAFB" />
      <rect x="21" width="2" height="26" fill="#9BA5AE" fill-opacity="0.42" />
    </pattern>
  </defs>

  <rect width="1200" height="620" fill="url(#bg)" />
  <rect y="432" width="1200" height="188" fill="url(#ground)" />

  <polygon points="148,544 1038,432 1038,468 148,580" fill="#B2B9BE" />
  <polygon points="148,580 1038,468 1038,506 148,618" fill="#858C93" />

  <polygon points="188,410 320,374 452,322 320,374" fill="url(#steelFace)" />
  <polygon points="320,374 452,322 592,360 458,410" fill="url(#steelFace)" />
  <polygon points="452,322 590,282 728,322 592,360" fill="url(#steelFace)" />
  <polygon points="592,360 728,322 864,362 730,404" fill="url(#steelFace)" />
  <polygon points="730,404 864,362 996,324 868,366" fill="url(#steelFace)" />

  <polygon points="188,410 206,410 206,566 188,566" fill="url(#steelFace)" />
  <polygon points="206,410 220,406 220,562 206,566" fill="url(#steelSide)" />
  <polygon points="320,374 338,374 338,544 320,544" fill="url(#steelFace)" />
  <polygon points="338,374 352,370 352,540 338,544" fill="url(#steelSide)" />
  <polygon points="452,322 470,322 470,526 452,526" fill="url(#steelFace)" />
  <polygon points="470,322 484,318 484,522 470,526" fill="url(#steelSide)" />
  <polygon points="592,360 610,360 610,518 592,518" fill="url(#steelFace)" />
  <polygon points="610,360 624,356 624,514 610,518" fill="url(#steelSide)" />
  <polygon points="728,322 746,322 746,508 728,508" fill="url(#steelFace)" />
  <polygon points="746,322 760,318 760,504 746,508" fill="url(#steelSide)" />
  <polygon points="866,366 884,366 884,512 866,512" fill="url(#steelFace)" />
  <polygon points="884,366 898,362 898,508 884,512" fill="url(#steelSide)" />
  <polygon points="996,324 1014,324 1014,504 996,504" fill="url(#steelFace)" />
  <polygon points="1014,324 1028,320 1028,500 1014,504" fill="url(#steelSide)" />

  <g opacity="0.28">
    <rect x="208" y="448" width="764" height="7" fill="#69747C" />
    <rect x="208" y="500" width="764" height="7" fill="#69747C" />
  </g>

  <polygon points="592,360 728,322 864,362 864,512 592,520" fill="url(#panelRibs)" />
  <polygon points="728,322 996,324 996,504 864,512 864,362" fill="url(#panelRibs)" />
  <polygon points="452,322 590,282 728,322 592,360" fill="url(#roofRibs)" />

  <polygon points="188,410 320,374 320,544 188,566" fill="#646C74" opacity="0.72" />
  <polygon points="206,420 302,394 302,536 206,552" fill="#565E66" opacity="0.58" />

  <rect x="444" y="526" width="40" height="14" rx="3" fill="#BCC4CA" />
  <rect x="724" y="506" width="40" height="14" rx="3" fill="#BCC4CA" />
  <rect x="992" y="502" width="40" height="14" rx="3" fill="#BCC4CA" />
</svg>
