<svg width="1600" height="980" viewBox="0 0 1600 980" fill="none" xmlns="http://www.w3.org/2000/svg">
  <defs>
    <linearGradient id="sky" x1="800" y1="0" x2="800" y2="980" gradientUnits="userSpaceOnUse">
      <stop stop-color="#E6E1D7" />
      <stop offset="0.6" stop-color="#D6D8DA" />
      <stop offset="1" stop-color="#BFC5CA" />
    </linearGradient>
    <linearGradient id="ground" x1="800" y1="660" x2="800" y2="980" gradientUnits="userSpaceOnUse">
      <stop stop-color="#B8B7B0" />
      <stop offset="1" stop-color="#8D908D" />
    </linearGradient>
    <linearGradient id="slabTop" x1="920" y1="702" x2="920" y2="912" gradientUnits="userSpaceOnUse">
      <stop stop-color="#C4C8CC" />
      <stop offset="1" stop-color="#9CA2A9" />
    </linearGradient>
    <linearGradient id="slabFace" x1="920" y1="770" x2="920" y2="944" gradientUnits="userSpaceOnUse">
      <stop stop-color="#8A9098" />
      <stop offset="1" stop-color="#676D75" />
    </linearGradient>
    <linearGradient id="frameFace" x1="0" y1="0" x2="1" y2="1">
      <stop stop-color="#D1D8DE" />
      <stop offset="0.46" stop-color="#96A1AA" />
      <stop offset="1" stop-color="#5D6770" />
    </linearGradient>
    <linearGradient id="frameSide" x1="0" y1="0" x2="0" y2="1">
      <stop stop-color="#7A858E" />
      <stop offset="1" stop-color="#46515A" />
    </linearGradient>
    <linearGradient id="opening" x1="680" y1="454" x2="680" y2="804" gradientUnits="userSpaceOnUse">
      <stop stop-color="#656D74" />
      <stop offset="0.5" stop-color="#565E66" />
      <stop offset="1" stop-color="#424A52" />
    </linearGradient>
    <pattern id="wallRibs" width="28" height="28" patternUnits="userSpaceOnUse">
      <rect width="28" height="28" fill="#F0F3F5" />
      <rect width="4" height="28" fill="#FBFCFD" />
      <rect x="13" width="2" height="28" fill="#A4ADB5" fill-opacity="0.46" />
      <rect x="23" width="2" height="28" fill="#8C969E" fill-opacity="0.28" />
    </pattern>
    <pattern id="roofRibs" width="40" height="24" patternUnits="userSpaceOnUse" patternTransform="rotate(-19)">
      <rect width="40" height="24" fill="#E4E9ED" />
      <rect width="5" height="24" fill="#FAFBFC" />
      <rect x="20" width="2" height="24" fill="#A1ABB4" fill-opacity="0.42" />
      <rect x="31" width="2" height="24" fill="#8C969E" fill-opacity="0.28" />
    </pattern>
    <filter id="shadow" x="-30%" y="-30%" width="160%" height="180%" color-interpolation-filters="sRGB">
      <feDropShadow dx="0" dy="24" stdDeviation="24" flood-color="#232A2F" flood-opacity="0.18" />
    </filter>
  </defs>

  <rect width="1600" height="980" fill="url(#sky)" />
  <rect y="662" width="1600" height="318" fill="url(#ground)" />

  <polygon points="402,838 1036,752 1338,668 1496,736 1496,772 402,914" fill="url(#slabTop)" />
  <polygon points="402,914 1496,772 1496,808 402,948" fill="url(#slabFace)" />

  <polygon points="474,882 1088,804 1324,734 1440,780 1440,798 474,920" fill="#5E666E" opacity="0.16" />

  <g filter="url(#shadow)">
    <polygon points="576,454 760,454 760,804 576,804" fill="url(#opening)" />
    <polygon points="760,454 910,426 910,780 760,804" fill="url(#wallRibs)" />
    <polygon points="910,426 1218,364 1218,718 910,780" fill="url(#wallRibs)" />

    <polygon points="576,454 754,378 910,426 760,454" fill="#E8EDF1" />
    <polygon points="754,378 1018,326 1218,364 910,426" fill="url(#roofRibs)" />

    <polygon points="560,426 580,426 580,804 560,804" fill="url(#frameFace)" />
    <polygon points="580,426 594,420 594,798 580,804" fill="url(#frameSide)" />
    <rect x="550" y="804" width="54" height="16" rx="3" fill="#C0C7CD" />

    <polygon points="894,426 914,422 914,780 894,784" fill="url(#frameFace)" />
    <polygon points="914,422 928,416 928,774 914,780" fill="url(#frameSide)" />
    <rect x="886" y="780" width="52" height="16" rx="3" fill="#C0C7CD" />

    <polygon points="560,426 754,348 766,364 574,442" fill="url(#frameFace)" />
    <polygon points="754,348 766,344 778,360 766,364" fill="url(#frameSide)" />
    <polygon points="754,348 910,426 922,410 766,332" fill="url(#frameFace)" />
    <polygon points="910,426 922,420 934,404 922,410" fill="url(#frameSide)" />

    <polygon points="738,378 1018,326 1030,344 752,394" fill="url(#frameFace)" />
    <polygon points="1018,326 1030,320 1042,338 1030,344" fill="url(#frameSide)" />
    <polygon points="900,426 1210,364 1222,382 912,444" fill="url(#frameFace)" />
    <polygon points="1210,364 1222,358 1234,376 1222,382" fill="url(#frameSide)" />

    <polygon points="592,466 612,462 612,790 592,792" fill="#87919A" />
    <polygon points="690,446 710,442 710,774 690,776" fill="#87919A" />
    <polygon points="788,432 808,428 808,758 788,762" fill="#87919A" />

    <polygon points="592,466 760,400 772,414 604,480" fill="#9EA7AE" />
    <polygon points="690,446 862,390 874,404 702,460" fill="#9EA7AE" />
    <polygon points="788,432 966,388 978,402 800,446" fill="#9EA7AE" />

    <g opacity="0.34">
      <rect x="914" y="496" width="300" height="7" fill="#77818A" />
      <rect x="914" y="564" width="300" height="7" fill="#77818A" />
      <rect x="914" y="632" width="300" height="7" fill="#77818A" />
    </g>

    <g opacity="0.32">
      <rect x="760" y="510" width="150" height="7" fill="#77818A" />
      <rect x="760" y="584" width="150" height="7" fill="#77818A" />
      <rect x="760" y="658" width="150" height="7" fill="#77818A" />
    </g>

    <path d="M758 478L890 742" stroke="#7A858E" stroke-width="7" stroke-linecap="round" />
    <path d="M894 474L766 786" stroke="#7A858E" stroke-width="7" stroke-linecap="round" />

    <polygon points="760,804 910,780 1218,718 1218,742 760,818" fill="#A4ABB1" />
    <polygon points="760,818 1218,742 1218,758 760,832" fill="#818890" />
  </g>

  <g opacity="0.2">
    <path d="M560 820L754 790" stroke="#333B43" stroke-width="8" stroke-linecap="round" />
    <path d="M910 784L1218 722" stroke="#333B43" stroke-width="8" stroke-linecap="round" />
    <path d="M754 790L910 784" stroke="#333B43" stroke-width="8" stroke-linecap="round" />
  </g>
</svg>
