<svg width="1600" height="980" viewBox="0 0 1600 980" fill="none" xmlns="http://www.w3.org/2000/svg">
  <defs>
    <linearGradient id="bg" x1="800" y1="70" x2="800" y2="980" gradientUnits="userSpaceOnUse">
      <stop stop-color="#CCD3D9"/>
      <stop offset="0.45" stop-color="#A2ACB5"/>
      <stop offset="1" stop-color="#5D666F"/>
    </linearGradient>
    <linearGradient id="floor" x1="800" y1="668" x2="800" y2="980" gradientUnits="userSpaceOnUse">
      <stop stop-color="#868E96"/>
      <stop offset="1" stop-color="#484F56"/>
    </linearGradient>
    <linearGradient id="steelMain" x1="0" y1="0" x2="1" y2="1">
      <stop stop-color="#A8B2BC"/>
      <stop offset="0.3" stop-color="#707B85"/>
      <stop offset="0.7" stop-color="#404850"/>
      <stop offset="1" stop-color="#939DA6"/>
    </linearGradient>
    <linearGradient id="steelDark" x1="0" y1="0" x2="0" y2="1">
      <stop stop-color="#505963"/>
      <stop offset="1" stop-color="#1C2329"/>
    </linearGradient>
    <linearGradient id="steelPlate" x1="0" y1="0" x2="1" y2="1">
      <stop stop-color="#D7DDE2"/>
      <stop offset="0.45" stop-color="#8F98A1"/>
      <stop offset="1" stop-color="#5D666F"/>
    </linearGradient>
    <linearGradient id="panelFace" x1="0" y1="0" x2="0" y2="1">
      <stop stop-color="#E9EEF1"/>
      <stop offset="0.55" stop-color="#BDC6CD"/>
      <stop offset="1" stop-color="#7E8993"/>
    </linearGradient>
    <linearGradient id="panelShade" x1="0" y1="0" x2="1" y2="1">
      <stop stop-color="#D6DCE1"/>
      <stop offset="1" stop-color="#808B95"/>
    </linearGradient>
    <linearGradient id="concrete" x1="0" y1="0" x2="0" y2="1">
      <stop stop-color="#C4C7CB"/>
      <stop offset="1" stop-color="#7C838A"/>
    </linearGradient>
    <linearGradient id="opening" x1="0" y1="0" x2="0" y2="1">
      <stop stop-color="#1F262C"/>
      <stop offset="1" stop-color="#080C10"/>
    </linearGradient>
    <pattern id="wallRibs" width="28" height="28" patternUnits="userSpaceOnUse">
      <rect width="28" height="28" fill="url(#panelFace)"/>
      <rect x="0" y="0" width="4" height="28" fill="#D7DEE4"/>
      <rect x="13" y="0" width="2" height="28" fill="#8A949D" fill-opacity="0.55"/>
      <rect x="24" y="0" width="2" height="28" fill="#6C757E" fill-opacity="0.42"/>
    </pattern>
    <pattern id="roofRibs" width="44" height="24" patternUnits="userSpaceOnUse" patternTransform="rotate(-18)">
      <rect width="44" height="24" fill="url(#panelShade)"/>
      <rect x="0" y="0" width="5" height="24" fill="#DDE3E8"/>
      <rect x="22" y="0" width="2" height="24" fill="#7B8791" fill-opacity="0.5"/>
    </pattern>
    <filter id="softShadow" x="-30%" y="-30%" width="160%" height="180%" color-interpolation-filters="sRGB">
      <feDropShadow dx="0" dy="24" stdDeviation="24" flood-color="#0B1014" flood-opacity="0.35"/>
    </filter>
    <clipPath id="roofLeftClip">
      <polygon points="424,384 666,286 918,214 676,314"/>
    </clipPath>
    <clipPath id="roofRightClip">
      <polygon points="666,286 914,384 1168,312 918,214"/>
    </clipPath>
    <clipPath id="sideWallClip">
      <polygon points="914,384 1168,312 1168,684 914,766"/>
    </clipPath>
    <clipPath id="frontWallRightClip">
      <polygon points="760,416 914,384 914,766 760,792"/>
    </clipPath>
  </defs>

  <rect width="1600" height="980" fill="url(#bg)"/>
  <rect y="640" width="1600" height="340" fill="url(#floor)"/>
  <polygon points="232,960 474,742 1114,708 1392,960" fill="#3D444B" opacity="0.42" filter="url(#softShadow)"/>

  <polygon points="330,780 942,702 1170,626 1330,680 1330,724 330,848" fill="#666F78"/>
  <polygon points="330,848 1330,724 1330,760 330,884" fill="#505861"/>
  <polygon points="330,884 1330,760 1330,792 330,916" fill="#3B434A"/>

  <g opacity="0.52">
    <polygon points="676,314 918,214 918,246 676,344" fill="url(#steelDark)"/>
    <polygon points="514,380 514,726 532,722 532,374" fill="url(#steelDark)"/>
    <polygon points="768,344 768,688 786,682 786,338" fill="url(#steelDark)"/>
    <polygon points="1020,306 1020,646 1038,640 1038,300" fill="url(#steelDark)"/>
  </g>

  <g filter="url(#softShadow)">
    <polygon points="416,384 438,384 438,780 416,780" fill="url(#steelMain)"/>
    <polygon points="438,384 456,378 456,770 438,780" fill="url(#steelDark)"/>
    <rect x="408" y="780" width="54" height="16" rx="4" fill="#A8B0B7"/>
    <circle cx="420" cy="788" r="3.6" fill="#485058"/>
    <circle cx="449" cy="788" r="3.6" fill="#485058"/>

    <polygon points="904,384 926,382 926,748 904,752" fill="url(#steelMain)"/>
    <polygon points="926,382 944,376 944,742 926,748" fill="url(#steelDark)"/>
    <rect x="896" y="748" width="54" height="16" rx="4" fill="#A8B0B7"/>
    <circle cx="908" cy="756" r="3.6" fill="#485058"/>
    <circle cx="937" cy="756" r="3.6" fill="#485058"/>

    <polygon points="658,286 680,282 680,666 658,670" fill="url(#steelMain)"/>
    <polygon points="680,282 696,278 696,660 680,666" fill="url(#steelDark)"/>
    <rect x="650" y="666" width="52" height="15" rx="4" fill="#A8B0B7"/>
    <circle cx="662" cy="673" r="3.4" fill="#485058"/>
    <circle cx="689" cy="673" r="3.4" fill="#485058"/>

    <polygon points="1158,312 1180,306 1180,620 1158,626" fill="url(#steelMain)"/>
    <polygon points="1180,306 1196,300 1196,614 1180,620" fill="url(#steelDark)"/>
    <rect x="1150" y="620" width="50" height="14" rx="4" fill="#A8B0B7"/>
    <circle cx="1162" cy="627" r="3.2" fill="#485058"/>
    <circle cx="1188" cy="627" r="3.2" fill="#485058"/>

    <polygon points="416,384 666,286 680,304 432,402" fill="url(#steelMain)"/>
    <polygon points="666,286 684,280 698,298 680,304" fill="url(#steelDark)"/>

    <polygon points="666,286 914,384 928,366 682,270" fill="url(#steelPlate)"/>
    <polygon points="914,384 930,378 944,360 928,366" fill="url(#steelDark)"/>

    <polygon points="658,286 918,214 934,234 676,306" fill="url(#steelMain)"/>
    <polygon points="918,214 934,208 950,228 934,234" fill="url(#steelDark)"/>

    <polygon points="904,384 1158,312 1174,332 922,404" fill="url(#steelMain)"/>
    <polygon points="1158,312 1174,306 1190,326 1174,332" fill="url(#steelDark)"/>

    <polygon points="462,468 524,444 532,454 470,478" fill="url(#steelDark)"/>
    <polygon points="930,450 1004,428 1012,438 938,460" fill="url(#steelDark)"/>

    <polygon points="920,384 1164,312 1164,684 920,762" fill="url(#wallRibs)"/>
    <polygon points="920,384 1164,312 1164,344 920,416" fill="#F0F4F7" opacity="0.38"/>
    <polygon points="760,416 920,384 920,762 760,790" fill="url(#wallRibs)"/>
    <polygon points="760,416 920,384 920,416 760,448" fill="#EEF2F5" opacity="0.32"/>

    <polygon points="416,384 666,286 918,214 666,310" fill="url(#roofRibs)"/>
    <polygon points="666,286 914,384 1168,312 918,214" fill="url(#roofRibs)"/>
    <polygon points="416,384 666,286 918,214 666,310" fill="#FFFFFF" opacity="0.06"/>
    <polygon points="666,286 914,384 1168,312 918,214" fill="#FFFFFF" opacity="0.04"/>

    <polygon points="430,422 760,422 760,790 430,790" fill="url(#opening)"/>
    <polygon points="446,442 742,442 742,772 446,772" fill="#0E1317"/>
    <rect x="470" y="472" width="242" height="242" fill="#182026"/>
    <rect x="470" y="472" width="242" height="18" fill="#303942"/>
    <rect x="470" y="472" width="18" height="242" fill="#2E3740"/>
    <rect x="694" y="472" width="18" height="242" fill="#131920"/>
    <rect x="534" y="472" width="10" height="242" fill="#263038"/>
    <rect x="598" y="472" width="10" height="242" fill="#263038"/>
    <rect x="662" y="472" width="10" height="242" fill="#263038"/>

    <g clip-path="url(#roofLeftClip)" opacity="0.56">
      <rect x="444" y="334" width="530" height="10" transform="rotate(-21 444 334)" fill="#505A64"/>
      <rect x="474" y="378" width="520" height="10" transform="rotate(-21 474 378)" fill="#505A64"/>
      <rect x="504" y="422" width="510" height="10" transform="rotate(-21 504 422)" fill="#505A64"/>
      <rect x="534" y="466" width="500" height="10" transform="rotate(-21 534 466)" fill="#505A64"/>
    </g>

    <g clip-path="url(#roofRightClip)" opacity="0.36">
      <rect x="652" y="252" width="560" height="8" transform="rotate(20 652 252)" fill="#5B6670"/>
      <rect x="642" y="312" width="560" height="8" transform="rotate(20 642 312)" fill="#5B6670"/>
      <rect x="632" y="372" width="560" height="8" transform="rotate(20 632 372)" fill="#5B6670"/>
      <rect x="622" y="432" width="560" height="8" transform="rotate(20 622 432)" fill="#5B6670"/>
    </g>

    <g clip-path="url(#sideWallClip)" opacity="0.34">
      <rect x="920" y="438" width="260" height="8" fill="#66717A"/>
      <rect x="920" y="498" width="260" height="8" fill="#66717A"/>
      <rect x="920" y="558" width="260" height="8" fill="#66717A"/>
      <rect x="920" y="618" width="260" height="8" fill="#66717A"/>
    </g>

    <g clip-path="url(#frontWallRightClip)" opacity="0.34">
      <rect x="760" y="470" width="156" height="8" fill="#66717A"/>
      <rect x="760" y="540" width="156" height="8" fill="#66717A"/>
      <rect x="760" y="610" width="156" height="8" fill="#66717A"/>
      <rect x="760" y="680" width="156" height="8" fill="#66717A"/>
    </g>

    <polygon points="938,584 1098,538 1098,660 938,710" fill="#2A323A"/>
    <polygon points="956,592 1080,556 1080,648 956,686" fill="#11161A"/>
    <rect x="1002" y="598" width="18" height="88" rx="8" fill="#38414A"/>

    <polygon points="938,708 1102,658 1102,686 938,736" fill="url(#concrete)"/>
    <polygon points="760,792 920,764 920,786 760,814" fill="url(#concrete)"/>

    <rect x="614" y="304" width="112" height="14" rx="7" fill="#B5BDC5"/>
    <rect x="624" y="308" width="92" height="6" rx="3" fill="#737E87"/>
    <circle cx="648" cy="311" r="3.2" fill="#495057"/>
    <circle cx="690" cy="311" r="3.2" fill="#495057"/>
  </g>

  <g opacity="0.22">
    <path d="M414 798L666 734" stroke="#20262C" stroke-width="8" stroke-linecap="round"/>
    <path d="M920 770L1170 694" stroke="#20262C" stroke-width="8" stroke-linecap="round"/>
    <path d="M666 734L920 770" stroke="#20262C" stroke-width="8" stroke-linecap="round"/>
  </g>
</svg>
